<svg width="160" viewBox="0 0 240 140" xmlns="http://www.w3.org/2000/svg"><g fill="none" fill-rule="evenodd"><circle fill="#CEF5DB" fill-rule="nonzero" cx="120" cy="70" r="70"/><g fill="#FFF"><path d="M100.01 117.84l.37-7.08 10.6-.36c.36 0 .55-.25.57-.55l.44-8.51c.02-.3-.15-.53-.51-.52l-6.26.21c-2.53.09-4.24-1.7-4.1-4.23l.78-15.04a4.63 4.63 0 0 1 4.57-4.52l14.44-.49-.36 6.9-10.17.34c-.3 0-.56.32-.58.68l-.44 8.38c0 .24.22.54.52.53l6.26-.22c2.52-.08 4.3 1.65 4.16 4.23l-.8 15.22a4.69 4.69 0 0 1-4.62 4.52l-14.87.5zm25.9-41.26l21.37-.72-.37 6.89-6.62.22-1.75 33.56-8.13.27 1.76-33.55-6.62.22.36-6.89zm49.43 2.69l-1.9 36.07-8.06.27.58-11.14-6.44.22-.58 11.14-8.07.28 1.9-36.07a4.6 4.6 0 0 1 4.56-4.53l13.84-.47c2.59-.08 4.3 1.65 4.17 4.23zm-15.46 18.7l6.44-.21.77-14.86c.04-.6-.43-.94-1.03-.92l-4.33.14c-.6.02-1.05.46-1.08 1l-.77 14.86zm37.4 1.49l8.13-.28-.55 10.55a5.1 5.1 0 0 1-5.06 4.95l-12.82.44c-2.77.1-4.66-1.82-4.5-4.63l1.63-31.28a5.1 5.1 0 0 1 5.01-5.02l12.82-.43c2.83-.1 4.71 1.81 4.56 4.69l-.54 10.36-8.13.28.4-7.67c.02-.36-.2-.65-.38-.64l-5.18.17c-.3.01-.56.32-.57.68l-1.36 25.82c-.02.36.21.6.51.58l5.06-.17c.3 0 .55-.26.57-.61l.4-7.8zm40.33 13.7l-8.61.29-5.87-15.3-1.94 2.77-.68 12.82-8.06.27 2.12-40.44 8.06-.28-.88 16.9 9.07-17.17 8.55-.3-10.43 18.9 8.67 21.54zM63.19 79.35l8.9-.3-.15 2.87-2.76.1L68.45 96l-3.38.11.73-13.98-2.76.1.15-2.88zm21.14-.72l-.88 16.86-3.36.11.36-6.96-2.98.1-.37 6.96-3.36.12.89-16.86 3.36-.11-.37 7.07 2.98-.1.37-7.07 3.36-.12zm3.08 16.72l.88-16.85 8-.27-.15 2.87-4.61.16-.21 4.07 3.88-.14-.14 2.82-3.9.14-.21 4.22 4.61-.16-.15 2.87-8 .27zM12.4 55.29l.35-6.77 13.3-.46-.35 6.77-2.47.09-.7 13.36a5.12 5.12 0 0 1-5.12 4.96l-12.46.42c-2.9.1-4.71-1.81-4.57-4.63l1.64-31.21a5.08 5.08 0 0 1 5.07-5.02l17.4-.6-.38 7.2-13.6.46c-.25 0-.5.32-.52.67L8.67 65.76c-.02.36.2.6.45.58l5.6-.19c.35 0 .55-.26.57-.61l.54-10.37-3.43.12zm21.82-23.17l18-.62c2.83-.1 4.65 1.82 4.5 4.64l-.92 17.61a4.97 4.97 0 0 1-3.92 4.8l3.1 13.23-8.01.27-2.98-13.11-3.07.1-.7 13.24-8.12.28 2.12-40.44zm13.7 19.63l.66-12.65c.01-.3-.21-.59-.45-.58l-6.14.21-.73 13.78 6.14-.2c.24-.02.5-.32.51-.56zm21.77-21.08l14.2-.48c2.59-.09 4.3 1.65 4.16 4.22l-1.68 32.12a4.65 4.65 0 0 1-4.62 4.52l-14.2.48c-2.65.1-4.3-1.64-4.17-4.22l1.68-32.12a4.6 4.6 0 0 1 4.63-4.52zm8.72 33.08l1.36-26c.02-.37-.27-.65-.45-.65l-5.84.2c-.3.01-.44.43-.45.67l-1.36 26c-.02.25.15.54.39.53l5.84-.2c.18 0 .5-.25.5-.55zm44.71-34.66l7.22-.24-8.25 40.65-6.93.24-3.43-25.13-6.2 25.45-6.92.24-4.08-40.23 7.83-.27 1.47 25.79 5.45-26.03 6.74-.23 2.75 25.51 4.35-25.75zm21.73-.74l-2.12 40.45-7.88.27 2.12-40.45 7.88-.27zm23.82 39.57l-8.1-22.1-1.17 22.41-7.16.25 2.12-40.45 7.1-.24 8.1 23.05 1.23-23.37 7.16-.24-2.12 40.44-7.16.25zM197.24 49l.36-6.77 13.3-.45-.36 6.77-2.46.08-.7 13.37a5.12 5.12 0 0 1-5.13 4.96l-12.46.42c-2.89.1-4.71-1.81-4.56-4.63l1.63-31.22a5.08 5.08 0 0 1 5.07-5.02l17.4-.59-.38 7.2-13.6.46c-.24 0-.5.31-.52.67l-1.32 25.23c-.02.36.2.59.45.58l5.6-.2c.36 0 .55-.25.57-.6l.54-10.37-3.43.11z"/></g><g fill="#FFF"><path d="M103.4 119.11l-.12-7.08 10.54-1.1c.36-.03.53-.3.53-.59l-.15-8.52c0-.3-.19-.52-.55-.48l-6.23.65c-2.51.26-4.34-1.41-4.39-3.93L102.77 83a4.63 4.63 0 0 1 4.24-4.83l14.37-1.5.12 6.9-10.12 1.06c-.3.03-.53.35-.53.71l.15 8.4c0 .24.25.52.55.48l6.23-.64c2.51-.27 4.4 1.34 4.45 3.92l.26 15.24a4.69 4.69 0 0 1-4.3 4.83l-14.79 1.54zm22.95-42.96l21.27-2.21.12 6.9-6.6.68.6 33.6-8.1.84-.58-33.6-6.59.7-.12-6.9zm49.5-.76l.63 36.11-8.03.84-.2-11.16-6.4.67.2 11.15-8.03.84-.64-36.11a4.6 4.6 0 0 1 4.24-4.83l13.78-1.44c2.57-.27 4.4 1.35 4.45 3.93zm-14.12 19.74l6.4-.67-.25-14.88c-.01-.6-.5-.9-1.1-.85l-4.3.45c-.6.07-1.02.53-1.01 1.07l.26 14.88zm37.43-1.14l8.08-.84.19 10.56a5.1 5.1 0 0 1-4.71 5.3l-12.76 1.33c-2.76.28-4.77-1.49-4.82-4.31l-.54-31.32a5.1 5.1 0 0 1 4.64-5.35L202 68.03c2.82-.29 4.83 1.48 4.88 4.36l.18 10.38-8.09.84-.13-7.67c0-.36-.25-.64-.43-.62l-5.15.54c-.3.03-.54.35-.53.71l.45 25.86c0 .36.25.57.55.54l5.03-.52c.3-.03.54-.3.53-.66l-.13-7.8zm41.17 10.86l-8.56.9-6.92-14.85-1.75 2.88.22 12.84-8.03.84-.7-40.5 8.02-.83.3 16.91 7.85-17.76 8.5-.89-9.07 19.58 10.14 20.88zM63.98 83.3l8.86-.93.05 2.87-2.74.3.24 13.99-3.37.35-.24-14-2.75.29-.05-2.88zm21.04-2.2l.3 16.87-3.35.35-.12-6.97-2.97.3.12 6.98-3.34.35-.3-16.87 3.35-.35.12 7.07 2.97-.3-.12-7.08 3.34-.35zm4.24 16.46l-.3-16.87 7.97-.83.05 2.88-4.6.47.08 4.08 3.86-.4.05 2.82-3.87.4.08 4.23 4.6-.48.04 2.87-7.96.83zM11.63 62.83l-.11-6.78 13.23-1.38.12 6.78-2.45.25.23 13.38c.05 2.82-1.9 5-4.77 5.3l-12.4 1.3c-2.87.3-4.82-1.48-4.87-4.3L.06 46.12a5.08 5.08 0 0 1 4.7-5.35l17.32-1.8.13 7.2-13.54 1.4c-.24.03-.48.35-.47.71l.44 25.26c0 .36.25.57.5.55l5.56-.58c.36-.04.54-.3.53-.66l-.18-10.38-3.42.36zM31.8 38.19l17.9-1.86c2.82-.3 4.77 1.48 4.82 4.3l.31 17.64a4.97 4.97 0 0 1-3.57 5.06l4 12.98-7.96.83-3.89-12.87-3.05.31.23 13.26-8.09.84-.7-40.49zm15.03 18.63l-.23-12.66c0-.3-.25-.57-.49-.55l-6.1.64.24 13.8 6.1-.64c.24-.03.48-.35.48-.6zm20.24-22.54L81.2 32.8c2.58-.26 4.4 1.35 4.45 3.93l.56 32.15a4.65 4.65 0 0 1-4.3 4.84l-14.13 1.47c-2.64.27-4.4-1.34-4.45-3.92l-.56-32.16a4.6 4.6 0 0 1 4.3-4.83zm11.01 32.39l-.45-26.04c0-.36-.31-.63-.5-.61l-5.8.6c-.3.04-.42.47-.41.7l.45 26.04c0 .24.2.53.43.5l5.81-.6c.18-.02.48-.3.47-.6zm42.19-37.7l7.19-.74-5.4 41.13-6.9.71-5.17-24.82-4.4 25.82-6.9.72-6.87-39.85 7.78-.81 3.27 25.62 3.62-26.34 6.71-.7 4.52 25.25 2.55-25.98zm21.62-2.25l.71 40.5-7.85.81-.7-40.49 7.84-.82zm26.53 37.8l-9.62-21.47.4 22.44-7.13.74-.71-40.5 7.07-.73 9.69 22.43-.4-23.4 7.12-.74.7 40.5-7.12.74zm27.18-20.85l-.12-6.78 13.24-1.38.12 6.78-2.46.25.23 13.38c.05 2.82-1.89 5-4.76 5.3l-12.4 1.3c-2.88.3-4.83-1.48-4.88-4.3l-.55-31.26a5.08 5.08 0 0 1 4.71-5.36l17.31-1.8.13 7.2-13.54 1.4c-.24.03-.47.36-.47.72l.44 25.25c.01.36.25.58.5.55l5.57-.58c.35-.03.53-.3.52-.65L199 43.3l-3.41.36z"/></g><g fill="#111"><path d="M102.55 118.82v-7.08l10.56-.92c.36-.03.53-.29.53-.59v-8.52c0-.3-.17-.52-.53-.49l-6.25.54c-2.52.22-4.31-1.48-4.31-4V82.7c0-2.58 1.8-4.54 4.31-4.76l14.4-1.24v6.9l-10.14.87c-.3.03-.54.35-.54.71v8.4c0 .24.25.52.55.5l6.23-.55c2.53-.22 4.39 1.42 4.39 4v15.24a4.69 4.69 0 0 1-4.39 4.76l-14.81 1.29zm23.7-42.56l21.3-1.84v6.9l-6.6.57v33.6l-8.1.7V82.6l-6.6.57v-6.9zm49.5.1v36.12l-8.04.7v-11.16l-6.43.55v11.16l-8.03.7V78.3a4.6 4.6 0 0 1 4.31-4.76l13.8-1.2c2.58-.21 4.38 1.43 4.38 4.01zm-14.47 19.5l6.43-.56V80.42c0-.6-.49-.92-1.09-.87l-4.31.37c-.6.05-1.03.51-1.03 1.05v14.88zm37.44-.49l8.1-.7v10.56a5.1 5.1 0 0 1-4.8 5.21l-12.78 1.11c-2.75.24-4.74-1.57-4.74-4.39V75.84a5.1 5.1 0 0 1 4.75-5.27l12.78-1.1c2.81-.25 4.8 1.56 4.8 4.44v10.38l-8.1.7v-7.68c0-.36-.24-.64-.42-.62l-5.16.44c-.3.03-.55.35-.55.71v25.86c0 .36.25.58.55.55l5.03-.43c.3-.03.54-.29.54-.65v-7.8zm40.99 11.57l-8.59.75-6.66-14.97-1.8 2.86v12.84l-8.03.7v-40.5l8.03-.7v16.92l8.16-17.63 8.53-.74-9.42 19.42 9.78 21.05zM63.76 82.31l8.87-.76v2.87l-2.75.24v14l-3.37.29v-14l-2.75.24V82.3zm21.07-1.82v16.87l-3.35.3v-6.98l-2.97.26v6.97l-3.35.3V81.32l3.35-.3v7.08l2.97-.26v-7.07l3.35-.3zm3.95 16.53V80.15l7.98-.7v2.88l-4.6.4v4.08l3.87-.34v2.82l-3.87.34v4.23l4.6-.4v2.87l-7.98.7zM11.78 60.94v-6.78L25.04 53v6.78l-2.46.21v13.38a5.12 5.12 0 0 1-4.86 5.22L5.3 79.68C2.42 79.93.5 78.1.5 75.29V44.03a5.08 5.08 0 0 1 4.8-5.27l17.34-1.5v7.2L9.08 45.63c-.24.02-.48.34-.48.7V71.6c0 .36.24.58.48.56l5.58-.48c.36-.03.54-.29.54-.65V60.64l-3.42.3zm20.58-24.28L50.3 35.1c2.82-.24 4.74 1.57 4.74 4.4v17.63a4.97 4.97 0 0 1-3.66 5l3.78 13.05-7.98.7-3.66-12.95-3.06.27v13.26l-8.1.7v-40.5zm14.7 18.88V42.88c0-.3-.24-.58-.48-.55l-6.12.53v13.8l6.12-.53c.24-.03.48-.35.48-.59zM67.7 33.36l14.16-1.23c2.58-.22 4.38 1.42 4.38 4V68.3c0 2.58-1.8 4.54-4.38 4.76L67.7 74.28c-2.64.23-4.38-1.42-4.38-4V38.12a4.6 4.6 0 0 1 4.38-4.76zm10.44 32.57V39.9c0-.36-.3-.63-.48-.61l-5.82.5c-.3.03-.42.46-.42.7v26.04c0 .24.18.52.42.5l5.82-.5c.18-.02.48-.29.48-.59zM120.98 29l7.2-.63-6.12 41.03-6.9.6-4.74-24.91-4.86 25.74-6.9.6-6.18-39.97 7.8-.67 2.82 25.67 4.08-26.27 6.72-.58 4.08 25.33 3-25.94zm21.66-1.88v40.5l-7.86.68V27.8l7.86-.68zm25.86 38.26l-9.24-21.64v22.44l-7.14.62v-40.5l7.08-.61 9.3 22.6v-23.4l7.14-.63v40.5l-7.14.62zM196.04 45V38.2l13.26-1.15v6.78l-2.46.21v13.38a5.12 5.12 0 0 1-4.86 5.22l-12.42 1.08c-2.88.25-4.8-1.56-4.8-4.38V28.09a5.08 5.08 0 0 1 4.8-5.28l17.34-1.5v7.2l-13.56 1.17c-.24.02-.48.34-.48.7v25.26c0 .36.24.58.48.56l5.58-.48c.36-.03.54-.29.54-.65V44.7l-3.42.3z"/></g></g></svg>
